<svg xmlns="http://www.w3.org/2000/svg" width="42" height="52" viewBox="0 0 42 52" fill="none"><path fill-rule="evenodd" clip-rule="evenodd" d="M21 3.25C14.7178 3.25 9.625 8.34276 9.625 14.625V21.125C6.03515 21.125 3.125 24.0351 3.125 27.625V42.25C3.125 45.8399 6.03515 48.75 9.625 48.75H32.375C35.9649 48.75 38.875 45.8399 38.875 42.25V27.625C38.875 24.0351 35.9649 21.125 32.375 21.125V14.625C32.375 8.34276 27.2822 3.25 21 3.25ZM29.125 21.125V14.625C29.125 10.1377 25.4873 6.5 21 6.5C16.5127 6.5 12.875 10.1377 12.875 14.625V21.125H29.125Z" fill="#73C052"></path></svg>