<svg xmlns="http://www.w3.org/2000/svg" width="40" height="41" viewBox="0 0 40 41" fill="none"><g clip-path="url(#clip0_4_541)"><path d="M7.22078 2.59741C7.79221 1.95325 7.74026 0.966241 7.09611 0.394812C6.45195 -0.176616 5.46494 -0.124668 4.89351 0.519488C2.41039 3.3039 0.664937 6.79481 0.0207815 10.6494C-0.124673 11.5013 0.446755 12.3013 1.2987 12.4468C2.15065 12.5922 2.95065 12.0208 3.09611 11.1688C3.64676 7.9065 5.11169 4.96624 7.22078 2.59741Z" fill="#fff"></path><path d="M35.1065 0.519488C34.5351 -0.124668 33.5481 -0.176616 32.9039 0.394812C32.2597 0.966241 32.2078 1.95325 32.7792 2.59741C34.8883 4.95585 36.3636 7.9065 36.9039 11.1688C37.0494 12.0208 37.8493 12.5922 38.7013 12.4468C39.5532 12.3013 40.1247 11.5013 39.9792 10.6494C39.3351 6.79481 37.6 3.3039 35.0961 0.519488H35.1065Z" fill="#fff"></path><path fill-rule="evenodd" clip-rule="evenodd" d="M20 0C12.2597 0 5.97402 6.27532 5.97402 14.026V15.5844C5.97402 20 4.31168 24.0104 1.56883 27.0545C1.22597 27.439 1.09091 27.9688 1.21558 28.4675C1.34026 28.9662 1.70389 29.3818 2.1922 29.5584C5.40259 30.7429 8.75844 31.6156 12.2286 32.1455C12.2182 32.3429 12.2078 32.5299 12.2078 32.7273C12.2078 37.0286 15.6987 40.5195 20 40.5195C24.3013 40.5195 27.7922 37.0286 27.7922 32.7273C27.7922 32.5299 27.7922 32.3325 27.7714 32.1455C31.2416 31.6156 34.5974 30.7429 37.8078 29.5584C38.2961 29.3818 38.6597 28.9766 38.7844 28.4675C38.9091 27.9688 38.7844 27.439 38.4312 27.0545C35.6883 24.0104 34.026 20 34.026 15.5844V14.026C34.026 6.27532 27.7506 0 20 0ZM15.3247 32.7273C15.3247 32.6545 15.3247 32.5922 15.3247 32.5195C16.8623 32.6545 18.4208 32.7273 20 32.7273C21.5792 32.7273 23.1273 32.6545 24.6753 32.5195C24.6753 32.5922 24.6753 32.6545 24.6753 32.7273C24.6753 35.3143 22.587 37.4026 20 37.4026C17.413 37.4026 15.3247 35.3143 15.3247 32.7273Z" fill="#73C052"></path></g><defs><clipPath id="clip0_4_541"><rect width="40" height="40.5195" fill="white"></rect></clipPath></defs></svg>