<svg xmlns="http://www.w3.org/2000/svg" width="48" height="38" viewBox="0 0 48 38" fill="none"><path d="M26.5007 25.5C29.8094 25.5 32.4917 22.8137 32.4917 19.5C32.4917 16.1863 29.8094 13.5 26.5007 13.5C23.192 13.5 20.5098 16.1863 20.5098 19.5C20.5098 22.8137 23.192 25.5 26.5007 25.5Z" fill="#73C052"></path><path fill-rule="evenodd" clip-rule="evenodd" d="M5.17975 18.3934C8.14977 9.45143 16.5715 3 26.5017 3C36.4273 3 44.8459 9.44543 47.8196 18.3809C48.0599 19.103 48.0601 19.8844 47.8202 20.6066C44.8502 29.5486 36.4285 36 26.4983 36C16.5727 36 8.15411 29.5546 5.18041 20.6191C4.94009 19.897 4.93986 19.1157 5.17975 18.3934ZM36.9849 19.5C36.9849 25.299 32.291 30 26.5007 30C20.7105 30 16.0166 25.299 16.0166 19.5C16.0166 13.701 20.7105 9 26.5007 9C32.291 9 36.9849 13.701 36.9849 19.5Z" fill="#fff"></path></svg>