<svg xmlns="http://www.w3.org/2000/svg" width="40" height="45" viewBox="0 0 40 45" fill="none"><g clip-path="url(#clip0_4_581)"><mask id="mask0_4_581" style="mask-type:luminance" maskUnits="userSpaceOnUse" x="0" y="0" width="44" height="45"><path d="M44 0H0V44.9778H44V0Z" fill="white"></path></mask><g mask="url(#mask0_4_581)"><path d="M4.15556 39.1111C3.75467 39.1111 3.42222 38.7787 3.42222 38.3778V4.64444C3.42222 4.24355 3.75467 3.91111 4.15556 3.91111H12.9556C15.7911 3.91111 18.0889 6.20889 18.0889 9.04444V11.9778C18.0889 14.0018 19.7316 15.6444 21.7556 15.6444H24.6889C27.5147 15.6444 29.8222 17.9422 29.8222 20.7778V25.6764C29.9787 25.6764 30.1253 25.6569 30.2818 25.6569C31.1324 25.6569 31.9636 25.7742 32.7556 25.9698V20.0444C32.7556 9.53333 24.2 0.977776 13.6889 0.977776H4.15556C2.13156 0.977776 0.488892 2.62044 0.488892 4.64444V38.3778C0.488892 40.4018 2.13156 42.0444 4.15556 42.0444H22.1173C21.4524 41.1644 20.9244 40.1769 20.5724 39.1111H4.15556ZM28.512 13.6791C27.368 13.0631 26.0676 12.7111 24.6889 12.7111H21.7556C21.3547 12.7111 21.0222 12.3787 21.0222 11.9778V9.04444C21.0222 7.66578 20.6702 6.35555 20.0542 5.22133C23.8382 6.85422 26.8791 9.89511 28.512 13.6791Z" fill="#fff"></path></g><path d="M8.39911 20.1618H23.8578M8.39911 24.4444H23.8578M8.39911 28.7271H16.1333" stroke="#2B95FF" stroke-width="2" stroke-linecap="round" stroke-linejoin="round"></path><path fill-rule="evenodd" clip-rule="evenodd" d="M30.2818 27.6027C25.7058 27.6027 22 31.3084 22 35.8844C22 40.4604 25.7058 44.1662 30.2818 44.1662C34.8578 44.1662 38.5636 40.4604 38.5636 35.8844C38.5636 31.3084 34.8578 27.6027 30.2818 27.6027ZM33.9973 34.0462L30.0667 38.9644C29.8907 39.1796 29.6364 39.3164 29.3529 39.336C29.0693 39.3556 28.8053 39.248 28.6 39.0524L26.6347 37.0871C26.2533 36.7058 26.2533 36.08 26.6347 35.6987C27.016 35.3173 27.6418 35.3173 28.0231 35.6987L29.216 36.8916L32.4622 32.8338C32.8044 32.4133 33.4204 32.3449 33.8409 32.6773C34.2613 33.0196 34.3298 33.6356 33.9973 34.056V34.0462Z" fill="#fff"></path><path d="M30.2818 27.6027C34.8578 27.6027 38.5636 31.3084 38.5636 35.8844C38.5636 40.4604 34.8578 44.1662 30.2818 44.1662C25.7058 44.1662 22 40.4604 22 35.8844C22 31.3084 25.7058 27.6027 30.2818 27.6027ZM29.216 36.872L28.0231 35.6791C27.8276 35.4836 27.5831 35.3956 27.3289 35.3956C27.0747 35.3956 26.8302 35.4933 26.6347 35.6791C26.2533 36.0604 26.2533 36.6862 26.6347 37.0676L28.6 39.0329C28.7858 39.2187 29.04 39.3164 29.2942 39.3164C29.3138 39.3164 29.3333 39.3164 29.3529 39.3164C29.6364 39.2969 29.8907 39.1698 30.0667 38.9449L33.9973 34.0267C34.3396 33.6062 34.2711 32.9804 33.8409 32.648C33.6551 32.5013 33.44 32.4329 33.2249 32.4329C32.9316 32.4329 32.648 32.56 32.4524 32.8044L29.2062 36.8622" fill="#73C052"></path></g><defs><clipPath id="clip0_4_581"><rect width="40" height="44.9778" fill="fff"></rect></clipPath></defs></svg>