<svg xmlns="http://www.w3.org/2000/svg" width="42" height="35" viewBox="0 0 42 35" fill="none"><g clip-path="url(#clip0_4_489)"><path fill-rule="evenodd" clip-rule="evenodd" d="M24.9237 0.0485537C25.7088 0.262018 26.17 1.05766 25.9541 1.83389L17.1217 33.8535C16.9058 34.6298 16.1011 35.0858 15.316 34.8723C14.5309 34.6589 14.0696 33.8632 14.2855 33.087L23.118 1.07706C23.3339 0.30083 24.1386 -0.155208 24.9237 0.0582566V0.0485537Z" fill="#fff"></path><path fill-rule="evenodd" clip-rule="evenodd" d="M27.4231 6.24874C28.0021 5.67626 28.9345 5.67626 29.5037 6.24874L39.8081 16.4368C40.3871 17.0093 40.3871 17.931 39.8081 18.4938L29.5037 28.6819C28.9246 29.2544 27.9923 29.2544 27.4231 28.6819C26.8441 28.1094 26.8441 27.1876 27.4231 26.6249L36.6874 17.4653L27.4231 8.30575C26.8441 7.73328 26.8441 6.81151 27.4231 6.24874Z" fill="#73C052"></path><path fill-rule="evenodd" clip-rule="evenodd" d="M12.8168 6.24868C13.3958 6.82115 13.3958 7.74293 12.8168 8.3057L3.55259 17.4653L12.8168 26.6248C13.3958 27.1973 13.3958 28.1191 12.8168 28.6818C12.2378 29.2543 11.3055 29.2543 10.7363 28.6818L0.431803 18.4938C-0.14721 17.9213 -0.14721 16.9995 0.431803 16.4367L10.7363 6.24868C11.3153 5.67621 12.2476 5.67621 12.8168 6.24868Z" fill="#73C052"></path></g><defs><clipPath id="clip0_4_489"><rect width="42" height="34.9305" fill="white"></rect></clipPath></defs></svg>