<svg xmlns="http://www.w3.org/2000/svg" width="61" height="50" viewBox="0 0 61 50" fill="none"><g clip-path="url(#clip0_4195_92)"><path d="M30.6188 30.2619C30.2779 30.2619 29.918 30.187 29.6149 30.0184C22.7964 26.4042 15.618 23.3518 8.30707 20.8987C7.68203 26.0671 7.30323 31.3293 7.17065 36.6288C15.4286 40.037 23.2699 44.213 30.6377 49.0631C37.9866 44.213 45.8468 40.037 54.1048 36.6288C53.9722 31.3105 53.5745 26.0671 52.9684 20.8987C45.6574 23.3518 38.479 26.423 31.6605 30.0184C31.3385 30.187 30.9976 30.2619 30.6567 30.2619H30.6188Z" fill="#0517A6"></path><path d="M8.55295 18.7451C6.05282 17.9211 3.53376 17.1534 0.976807 16.4605C10.2197 10.0561 20.1444 4.51306 30.6184 0C41.0924 4.51306 51.0172 10.0561 60.2601 16.4605C57.7031 17.1534 55.1841 17.9211 52.6839 18.7451M8.55295 18.7451C16.2048 21.2919 23.5916 24.4567 30.6184 28.1645C37.6453 24.4567 45.0131 21.2919 52.6839 18.7451" fill="#2B95FF"></path><path d="M15.6557 32.4153C16.8377 32.4153 17.7959 31.4679 17.7959 30.2992C17.7959 29.1306 16.8377 28.1832 15.6557 28.1832C14.4736 28.1832 13.5154 29.1306 13.5154 30.2992C13.5154 31.4679 14.4736 32.4153 15.6557 32.4153Z" stroke="#00E2A2" stroke-width="2.26" stroke-linecap="round" stroke-linejoin="round"></path><path d="M15.6558 34.2879C14.6141 34.2879 13.7617 33.4453 13.7617 32.4153V22.0596C13.7617 21.4042 14.1027 20.8049 14.6519 20.4679C19.5385 17.4717 24.6335 14.7001 29.8042 12.247C30.7512 11.7976 31.8687 12.1908 32.3233 13.1271C32.7779 14.0634 32.3801 15.187 31.4331 15.6177C26.698 17.8649 22.0387 20.3742 17.5498 23.0896V32.3966C17.5498 33.4265 16.6975 34.2692 15.6558 34.2692V34.2879Z" fill="#00E2A2"></path><path d="M10.6368 48.3514C10.1444 48.3514 9.67085 48.1642 9.29204 47.8084C8.55337 47.078 8.55337 45.8983 9.29204 45.168C12.171 42.3216 13.743 38.5575 13.743 34.5314V30.2992C13.743 29.2693 14.5953 28.4266 15.6371 28.4266C16.6788 28.4266 17.5311 29.2693 17.5311 30.2992V34.5314C17.5311 39.55 15.5613 44.2691 11.9626 47.8084C11.5838 48.1829 11.1103 48.3514 10.6179 48.3514H10.6368Z" fill="#00E2A2"></path></g><defs><clipPath id="clip0_4195_92"><rect width="61" height="50" fill="white"></rect></clipPath></defs></svg>