<svg xmlns="http://www.w3.org/2000/svg" width="76" height="52" viewBox="0 0 76 52" fill="none"><mask id="mask0_4195_122" style="mask-type:luminance" maskUnits="userSpaceOnUse" x="0" y="0" width="49" height="52"><path d="M48.3738 0H0.373779V52H48.3738V0Z" fill="white"></path></mask><g mask="url(#mask0_4195_122)"><path d="M41.3738 0C38.6138 0 36.3738 2.24 36.3738 5V47C36.3738 49.76 38.6138 52 41.3738 52H43.3738C46.1338 52 48.3738 49.76 48.3738 47V5C48.3738 2.24 46.1338 0 43.3738 0H41.3738Z" fill="#00E2A2"></path><path d="M18.3738 17C18.3738 14.24 20.6138 12 23.3738 12H25.3738C28.1338 12 30.3738 14.24 30.3738 17V47C30.3738 49.76 28.1338 52 25.3738 52H23.3738C20.6138 52 18.3738 49.76 18.3738 47V17Z" fill="#0517A6"></path><path d="M0.373779 29C0.373779 26.24 2.61378 24 5.37378 24H7.37378C10.1338 24 12.3738 26.24 12.3738 29V47C12.3738 49.76 10.1338 52 7.37378 52H5.37378C2.61378 52 0.373779 49.76 0.373779 47V29Z" fill="#2B95FF"></path></g><path d="M54.3332 4.52045C55.6456 4.52045 56.4092 5.47973 56.6249 6.77439L56.9805 8.90757C57.1492 9.92016 57.8961 10.7322 58.8442 11.1258C59.7926 11.5197 60.8817 11.467 61.7174 10.8701L63.4777 9.61277C64.5457 8.84988 66.0087 8.97091 66.9368 9.89899L68.783 11.7452C69.7111 12.6733 69.8322 14.1363 69.0693 15.2043L67.8115 16.9653C67.2148 17.8007 67.1621 18.8895 67.5558 19.8377C67.9493 20.7855 68.7612 21.5322 69.7735 21.7009L71.907 22.0565C73.2017 22.2723 74.1506 23.3925 74.1506 24.705V27.3158C74.1506 28.6283 73.2017 29.7484 71.907 29.9642L69.7739 30.3198C68.7613 30.4886 67.9493 31.2353 67.5557 32.1834C67.1619 33.1318 67.2144 34.221 67.8114 35.0566L69.0685 36.8166C69.8314 37.8847 69.7103 39.3477 68.7822 40.2758L66.9361 42.1219C66.008 43.05 64.545 43.1711 63.4769 42.4082L61.7166 41.1508C60.8811 40.5539 59.7922 40.5014 58.8438 40.895C57.8959 41.2886 57.1492 42.1005 56.9805 43.1129L56.6249 45.2464C56.4092 46.5411 55.6456 47.4795 54.3332 47.4795M54.333 33.1703C58.2873 33.1703 61.4929 29.9647 61.4929 26.0104C61.4929 22.0561 58.2873 18.8506 54.333 18.8506" stroke="#0517A6" stroke-width="3" stroke-linecap="square" stroke-linejoin="round"></path></svg>