<svg xmlns="http://www.w3.org/2000/svg" width="46" height="53" viewBox="0 0 46 53" fill="none"><g clip-path="url(#clip0_4_592)"><path d="M30.892 25.6015V20.5295C30.892 16.926 27.9766 14.0084 24.3757 14.0084H21.4796C20.2825 14.0084 19.3075 13.0326 19.3075 11.8347V8.93638C19.3075 5.33285 16.3921 2.41524 12.7912 2.41524H9.17107M30.892 28.3742V19.805C30.892 10.202 23.1111 2.41524 13.5153 2.41524H4.10285C2.90578 2.41524 1.93076 3.39099 1.93076 4.58895V37.9192C1.93076 39.1172 2.90578 40.093 4.10285 40.093H20.5818" stroke="#fff" stroke-width="3" stroke-linecap="round" stroke-linejoin="round"></path><rect x="5.72974" y="17.9054" width="6.44595" height="2.86486" rx="1.43243" fill="#6294FF"></rect><rect x="5.72974" y="29.3649" width="7.16216" height="2.86486" rx="1.43243" fill="#6294FF"></rect><rect x="14.7671" y="29.5342" width="9.02432" height="2.46118" rx="1.23059" fill="#00E2A2"></rect><rect x="13.9467" y="18.0486" width="12.3059" height="2.46118" rx="1.23059" fill="#73C052"></rect><rect x="5.72974" y="23.6351" width="10.027" height="2.86486" rx="1.43243" fill="#73C052"></rect><path fill-rule="evenodd" clip-rule="evenodd" d="M28.6934 29.432C24.3546 29.432 20.8374 32.9493 20.8374 37.288C20.8374 41.6268 24.3546 45.144 28.6934 45.144C30.863 45.144 32.8258 44.2656 34.2484 42.843C35.671 41.4204 36.5494 39.4576 36.5494 37.288C36.5494 32.9493 33.0321 29.432 28.6934 29.432ZM19.0916 37.288C19.0916 31.9851 23.3905 27.6862 28.6934 27.6862C33.9963 27.6862 38.2952 31.9851 38.2952 37.288C38.2952 39.6248 37.4595 41.7677 36.0721 43.4323L41.5311 48.8912C41.8719 49.2321 41.8719 49.7848 41.5311 50.1257C41.1902 50.4666 40.6375 50.4666 40.2966 50.1257L34.8377 44.6667C33.1731 46.0541 31.0302 46.8898 28.6934 46.8898C23.3905 46.8898 19.0916 42.5909 19.0916 37.288Z" fill="#73C052" stroke="#73C052" stroke-width="2" stroke-linecap="round" stroke-linejoin="round"></path><rect x="17.1892" y="23.6351" width="9.31081" height="2.86486" rx="1.43243" fill="#73C052"></rect></g><defs><clipPath id="clip0_4_592"><rect width="45.1216" height="53" fill="white"></rect></clipPath></defs></svg>